# xmcd CD database file
#
# Track frame offsets:
#	150
#	20465
#	49652
#	68425
#	102020
#	129897
#	154542
#	175845
#	221235
#	234092
#	269697
#
# Disc length: 3878 seconds
#
# Revision: 1
# Processed by: cddbd v1.5.2PL0 Copyright (c) Steve Scherf et al.
# Submitted via: CDex 1.70beta2
#
DISCID=870f240b
DTITLE=A.V. - Nuova Era and Meditazione
DYEAR=2000
DGENRE=New Age
TTITLE0=Forever - Nicholas Gunn
TTITLE1=Dont't let your dreams let you down - Sonicambience
TTITLE2=Coral Sea - Joaquin Liévano
TTITLE3=Terra - Lorellei
TTITLE4=Breath is Life - Barefoot
TTITLE5=Cavatina - Di Domenico
TTITLE6=Green Rain Forest - Ray Dean
TTITLE7=Kan - Frank Steiner Jr
TTITLE8=Uncertain Future - Dave Hewson
TTITLE9=Way Home - Project Erde and Erik Berguld
TTITLE10=Canyon Reveire - R. Carlos Nakai
EXTD=YEAR: 2000
EXTT0=
EXTT1=
EXTT2=
EXTT3=
EXTT4=
EXTT5=
EXTT6=
EXTT7=
EXTT8=
EXTT9=
EXTT10=
PLAYORDER=
